<?xml version="1.0" encoding="utf-8"?>
<!-- Generator: Adobe Illustrator 23.0.3, SVG Export Plug-In . SVG Version: 6.00 Build 0)  -->
<svg version="1.1" id="Layer_1" xmlns="http://www.w3.org/2000/svg" xmlns:xlink="http://www.w3.org/1999/xlink" x="0" y="0" width="202" height="42" viewBox="0, 0, 202, 42">
  <style type="text/css">
    .st0{fill:#FFFFFF;}
  </style>
  <g id="fb337a08-c260-4a63-8895-0fe8236779a7">
    <g id="a7031336-9cc5-4686-86d2-8b58acb43935">
      <path class="st0" d="M7.2,24.4c2.3,0,4.1,1.8,4.1,4.1s-1.8,4.1-4.1,4.1s-4.1-1.8-4.1-4.1c0,0,0,0,0,0C3.1,26.2,5,24.4,7.2,24.4"/>
      <path class="st0" d="M7.2,12.2c2.3,0,4.1,1.8,4.1,4.1s-1.8,4.1-4.1,4.1s-4.1-1.8-4.1-4.1C3.1,14,5,12.2,7.2,12.2L7.2,12.2"/>
      <path class="st0" d="M7.2,0.9c1.8,0,3.2,1.4,3.2,3.2S9,7.3,7.2,7.3S4.1,5.8,4.1,4.1c0,0,0,0,0,0C4.1,2.3,5.5,0.9,7.2,0.9 M7.2,0
			C5,0,3.2,1.8,3.2,4.1S5,8.2,7.3,8.2c2.3,0,4.1-1.8,4.1-4.1C11.3,1.8,9.5,0,7.2,0C7.2,0,7.2,0,7.2,0"/>
      <path class="st0" d="M19,24.4c2.3,0,4.1,1.8,4.1,4.1s-1.8,4.1-4.1,4.1s-4.1-1.8-4.1-4.1l0,0C14.9,26.2,16.7,24.4,19,24.4"/>
      <path class="st0" d="M19,12.2c2.3,0,4.1,1.8,4.1,4.1s-1.8,4.1-4.1,4.1s-4.1-1.8-4.1-4.1C14.9,14,16.7,12.2,19,12.2L19,12.2"/>
      <path class="st0" d="M19,0c2.3,0,4.1,1.8,4.1,4.1S21.2,8.2,19,8.2s-4.1-1.8-4.1-4.1S16.7,0,19,0C19,0,19,0,19,0"/>
      <path class="st0" d="M30.7,24.4c2.3,0,4.1,1.8,4.1,4.1s-1.8,4.1-4.1,4.1s-4.1-1.8-4.1-4.1l0,0C26.6,26.2,28.5,24.4,30.7,24.4"/>
      <path class="st0" d="M30.7,13.1c1.7,0,3.2,1.4,3.2,3.2s-1.4,3.2-3.2,3.2c-1.7,0-3.2-1.4-3.2-3.2C27.6,14.5,29,13.1,30.7,13.1
			 M30.7,12.2c-2.3,0-4.1,1.8-4.1,4.1s1.8,4.1,4.1,4.1s4.1-1.8,4.1-4.1l0,0C34.8,14,33,12.2,30.7,12.2"/>
      <path class="st0" d="M30.7,0c2.3,0,4.1,1.8,4.1,4.1S33,8.2,30.7,8.2s-4.1-1.8-4.1-4.1c0,0,0,0,0,0C26.6,1.8,28.5,0,30.7,0"/>
      <path class="st0" d="M42.5,24.4c2.3,0,4.1,1.8,4.1,4.1s-1.8,4.1-4.1,4.1s-4.1-1.8-4.1-4.1l0,0C38.4,26.2,40.2,24.4,42.5,24.4"/>
      <path class="st0" d="M42.5,12.2c2.3,0,4.1,1.8,4.1,4.1s-1.8,4.1-4.1,4.1s-4.1-1.8-4.1-4.1S40.2,12.2,42.5,12.2"/>
      <path class="st0" d="M42.5,0c2.3,0,4.1,1.8,4.1,4.1s-1.8,4.1-4.1,4.1s-4.1-1.8-4.1-4.1c0,0,0,0,0,0C38.4,1.8,40.2,0,42.5,0"/>
      <path class="st0" d="M52,32.5V0.9c2.6-0.3,6.3-0.4,11-0.4c3.9,0,6.6,0.7,8.1,2.1c1.5,1.4,2.2,4,2.2,7.9c0,3.9-0.7,6.5-2.1,7.9
			c-1.4,1.4-4,2.1-7.7,2.1c-2.3,0-4.6-0.1-6.9-0.4v12.4H52z M56.6,16.5h6.3c2.2,0,3.8-0.5,4.6-1.3s1.2-2.4,1.2-4.8
			c0-2.4-0.4-4-1.2-4.8c-0.8-0.8-2.4-1.2-4.6-1.2c-3.1,0-5.2,0-6.3,0L56.6,16.5z"/>
      <path class="st0" d="M92.8,12.2c1.6-1.8,4.4-2.7,8.2-2.7s6.6,0.9,8.2,2.7c1.6,1.8,2.4,4.8,2.4,9.1s-0.8,7.3-2.4,9.1
			c-1.6,1.8-4.4,2.7-8.2,2.7c-3.9,0-6.6-0.9-8.2-2.7c-1.6-1.8-2.4-4.8-2.4-9.1S91.2,14,92.8,12.2 M105.8,15
			c-0.9-1.1-2.4-1.7-4.8-1.7s-3.9,0.6-4.8,1.7c-0.9,1.1-1.3,3.2-1.3,6.4c0,3.1,0.4,5.2,1.3,6.3c0.9,1.1,2.4,1.7,4.8,1.7
			s3.9-0.6,4.8-1.7c0.9-1.1,1.3-3.2,1.3-6.3S106.7,16.1,105.8,15"/>
      <path class="st0" d="M155.2,23.5h-10c0.2,2.3,0.8,3.9,1.8,4.7c1,0.8,2.6,1.2,4.9,1.2c2.6,0,5.2-0.2,7.8-0.5l0.4,2.9
			c-2,0.9-5,1.3-8.8,1.3s-6.6-0.9-8.3-2.7c-1.6-1.8-2.5-4.8-2.4-9.1s0.8-7.3,2.4-9.1c1.6-1.7,4.3-2.6,7.9-2.6c3.4,0,5.9,0.6,7.5,1.9
			s2.3,3.1,2.3,5.6C160.6,21.3,158.8,23.5,155.2,23.5 M145.1,20h8.9c1.5,0,2.2-1,2.2-3c0-1.4-0.4-2.3-1.2-2.9
			c-0.7-0.6-2.1-0.8-4-0.8c-2.2,0-3.7,0.5-4.6,1.4C145.6,15.6,145.2,17.4,145.1,20"/>
      <path class="st0" d="M134.6,12.3c-1.3-1.8-3.4-2.7-6.1-2.7c-2.9,0-5.6,1.2-8,3.5V4.4l0,0v-4h-4.4v31c3.4,1.1,6.9,1.7,10.4,1.6
			c3.8,0,6.4-1,7.9-2.9c1.5-1.9,2.2-4.9,2.2-8.9C136.6,17.1,135.9,14.1,134.6,12.3 M130.7,27.5c-0.8,1.2-2.3,1.8-4.3,1.8
			c-2,0-4-0.2-5.9-0.7V16.5c1.1-0.9,2.2-1.7,3.5-2.4c0.9-0.5,1.9-0.7,3-0.7c2,0,3.4,0.6,4,1.7c0.7,1.1,1,3.2,1.1,6.2
			C132,24.2,131.6,26.3,130.7,27.5"/>
      <path class="st0" d="M87.8,9.7c-2.2,0.4-4.6,1.5-7,3.4v-2.9h-4.4v22.3h4.4V16.3c3-1.4,5.3-2.2,7-2.5V9.7z"/>
      <path class="st0" d="M192.7,10.1l-5.5,16.3c-0.3,1-0.6,1.9-0.9,2.7h-0.5l-0.3-1c-0.2-0.6-0.3-1.2-0.6-1.7l-1.2-3.5l0,0l-1.2-3.4
			l-3.2-9.4h-4.8l3.9,10.4l1.7,4.6l0.6,1.6l3,8.1c-0.4,0.7-1,1.3-1.6,1.9c-0.6,0.6-1.3,1-2.1,1.4v3.6c4-0.6,6.9-3.3,8.7-8.2
			l8.7-23.4L192.7,10.1z"/>
      <rect x="166" y="0.5" class="st0" width="4.5" height="32"/>
    </g>
  </g>
</svg>
